<svg xmlns="http://www.w3.org/2000/svg" xmlns:xlink="http://www.w3.org/1999/xlink" version="1.1" x="0px" y="0px" viewBox="0 0 100 125" enable-background="new 0 0 100 100" xml:space="preserve"><path fill="#000000" d="M87.9252,24.1606l-2.7924-1.1105c-0.2769-0.1096-0.5897,0.0252-0.6999,0.3016l-1.1106,2.7924  c-0.0527,0.1328-0.0506,0.2811,0.0059,0.4124s0.1629,0.2347,0.2958,0.2875l2.7924,1.1105c0.0654,0.0259,0.1327,0.0382,0.1989,0.0382  c0.2143,0,0.4169-0.1286,0.501-0.3398l1.1106-2.7924c0.0527-0.1328,0.0506-0.2811-0.0059-0.4124  C88.1645,24.3169,88.0581,24.2134,87.9252,24.1606z"/><g><path fill="#000000" d="M77.0622,62.3872c-3.6751-1.5503-7.5478-2.0003-10.6642-1.384c-0.184-0.1474-0.3777-0.2951-0.5811-0.4426   c-2.773-2.0116-5.6295-2.7702-8.4908-2.2547c-1.8264,0.3291-3.4008,1.1413-4.6766,2.0553   c-0.808-1.0434-1.6712-2.0926-2.5734-3.1321c3.0832-2.05,7.3736-3.94,12.7264-3.94c0.7709,0,1.396-0.625,1.396-1.396   c0-0.7709-0.625-1.396-1.396-1.396c-6.2492,0-11.1638,2.2397-14.626,4.6186c-0.7151-0.7691-1.4456-1.5267-2.1845-2.2656   c-8.1513-8.1512-18.5515-15.2977-22.1233-11.7257c-0.3203,0.3203-0.5585,0.6968-0.7187,1.1262L4.3079,84.7947   c-1.2566,2.82-0.6576,6.0525,1.526,8.2349c1.4244,1.4238,3.2951,2.1729,5.2057,2.1729c1.0182-0.0001,2.048-0.2129,3.0271-0.6499   l42.6045-18.8927c0.3961-0.1595,0.7464-0.3864,1.0465-0.6865c2.2159-2.216,0.3057-7.0604-3.4098-12.3653   c0.9874-0.7034,2.1817-1.318,3.5299-1.5576c1.761-0.3122,3.561,0.0668,5.3639,1.1288c-0.3723,0.2219-0.7177,0.4695-1.0324,0.7421   c-1.7737,1.5377-2.4012,3.7144-1.7669,6.1291c0.5389,2.0515,1.9922,3.3192,3.8877,3.3912c0.0547,0.002,0.1093,0.0031,0.164,0.0031   c2.148-0.0001,4.2966-1.5879,5.0456-3.7553c0.3185-0.9211,0.6837-2.8808-0.7483-5.1427c2.1059-0.0842,4.6227,0.3149,7.2256,1.4127   c0.7101,0.2992,1.5289-0.0333,1.8288-0.7438C78.1055,63.5056,77.7724,62.6868,77.0622,62.3872z M12.9319,92.0017   c-2.1288,0.9502-4.0431,0.134-5.1243-0.9468c-1.0813-1.0806-1.8986-2.9942-0.9483-5.1267l2.925-6.6044   c0.1197,0.2043,0.2446,0.4111,0.3803,0.6232c0.0679,0.1185,0.1546,0.2292,0.2597,0.3273c0.2688,0.2508,0.6106,0.3749,0.9517,0.3749   c0.3739,0,0.7472-0.1493,1.0223-0.444c0.4364-0.4675,0.4992-1.1716,0.1527-1.709c-0.8759-1.3585-1.1562-2.1941-1.247-2.6035   l0.6333-1.4299c0.0337,0.083,0.0643,0.1649,0.1,0.2486c0.2262,0.5308,0.7421,0.8493,1.285,0.8493   c0.1824,0,0.3679-0.036,0.5464-0.1121c0.7093-0.3021,1.0393-1.1221,0.7372-1.8314c-0.5246-1.2316-0.7896-2.3658-0.7663-3.2799   c0.0013-0.0496-0.0071-0.0967-0.0109-0.1451l3.6053-8.1405c0.1453,0.3179,0.2995,0.6402,0.4702,0.9706   c0.248,0.48,0.7357,0.7554,1.2412,0.7554c0.2158,0,0.4349-0.0502,0.6398-0.1561c0.6849-0.3539,0.9532-1.1961,0.5993-1.881   c-0.6677-1.2921-1.1078-2.4745-1.2876-3.4434l0.5233-1.1817c0.1375,0.3496,0.2875,0.7055,0.4542,1.0696   c0.2347,0.5127,0.7408,0.8151,1.27,0.8151c0.1944,0,0.3921-0.0408,0.5803-0.1271c0.701-0.3209,1.0091-1.1493,0.688-1.8503   c-0.622-1.3586-0.9978-2.5614-1.1166-3.5752c-0.0147-0.1251-0.0505-0.2414-0.0951-0.353l2.4581-5.5503   c0.3805,0.8979,0.8704,1.8677,1.4802,2.9153c2.2736,3.9068,5.9156,8.4482,10.2554,12.788   c0.0765,0.0765,0.1535,0.1511,0.2301,0.2272c0.0233,0.0233,0.0459,0.0468,0.0692,0.0701l0.0106,0.0106   c0.0035,0.0035,0.0078,0.0058,0.0114,0.0093c4.2419,4.1988,8.6558,7.7204,12.4664,9.9379c1.0472,0.6094,2.02,1.1043,2.9175,1.4847   l-5.4239,2.4052c-0.106-0.0361-0.2159-0.0641-0.3326-0.074c-3.0083-0.253-8.7514-3.2161-14.8009-9.2656   c-2.2228-2.2228-4.2202-4.6159-5.7763-6.9207c-0.4315-0.6391-1.299-0.8072-1.9381-0.3758   c-0.6389,0.4315-0.8072,1.2992-0.3758,1.9381c1.6544,2.4503,3.7692,4.9859,6.116,7.3327   c4.4067,4.4066,9.0917,7.6836,12.9973,9.1881l-1.1575,0.5133c-2.7245-0.4613-7.6921-3.2244-12.9986-8.5308   c-1.8779-1.8777-3.542-3.8226-4.9461-5.7805c-0.4493-0.6265-1.3215-0.7702-1.9479-0.3208   c-0.6264,0.4493-0.7701,1.3214-0.3208,1.9479c1.4925,2.081,3.2557,4.1426,5.2406,6.1276c3.799,3.7991,7.7954,6.7123,11.1838,8.2367   l-8.1003,3.5921c-0.0282,0.0001-0.0553-0.005-0.0839-0.0031c-2.0995,0.1238-5.8982-1.418-9.6348-5.1549   c-0.9087-0.9087-1.7317-1.8706-2.4458-2.8588c-0.4515-0.625-1.3245-0.7655-1.949-0.314c-0.6249,0.4515-0.7655,1.3242-0.314,1.949   c0.8009,1.1084,1.721,2.1844,2.7345,3.198c2.3556,2.3555,4.9415,4.121,7.3663,5.1024l-1.428,0.6333   c-1.3424-0.3034-4-1.8866-6.8859-4.7724c-0.4657-0.4657-0.9132-0.9412-1.3301-1.4133c-0.5103-0.5779-1.3925-0.6327-1.9704-0.1224   c-0.5779,0.5104-0.6327,1.3925-0.1224,1.9704c0.455,0.5152,0.9424,1.0332,1.4487,1.5395c1.8312,1.8312,3.7311,3.3264,5.4334,4.3177   L12.9319,92.0017z M55.7435,72.9992c-0.2551,0.2555-1.8979,0.4529-5.9567-1.9093c-3.6317-2.1133-7.8725-5.5069-11.9705-9.572   c-2.3794-2.3935-4.0889-4.9642-4.8158-7.2462c-0.4481-1.4071-0.7293-3.3376,0.476-4.543c1.2263-1.2267,3.6421-0.907,5.8776,0.7757   c1.5501,1.3243,3.1181,2.7747,4.6636,4.3202c0.6605,0.6605,1.3015,1.3253,1.925,1.9909c-2.3421,1.9743-3.6133,3.688-3.7362,3.8569   c-0.4534,0.6235-0.3155,1.4967,0.308,1.9501c0.248,0.1802,0.5352,0.2671,0.82,0.2671c0.4313,0,0.8569-0.1994,1.1301-0.575   c0.0272-0.0375,1.1889-1.5991,3.3666-3.4123c0.9669,1.1083,1.8699,2.2094,2.7,3.2899c-0.964,0.9924-1.5084,1.7981-1.5614,1.8779   c-0.4261,0.6409-0.2522,1.5043,0.3877,1.9321c0.6402,0.4276,1.5062,0.2555,1.9354-0.3838c0.009-0.0134,0.3323-0.4869,0.9136-1.1274   c0.6022,0.8755,1.1494,1.7299,1.6276,2.5517C56.1962,71.1014,55.9988,72.7438,55.7435,72.9992z M66.8611,67.7776   c-0.4147,1.1999-1.6034,1.9053-2.465,1.8743c-0.2371-0.009-0.9586-0.0364-1.2933-1.3108   c-0.3648-1.3887-0.0718-2.4715,0.8955-3.3102c0.4214-0.3653,0.9823-0.679,1.6565-0.9235   C66.8168,65.3573,67.253,66.6435,66.8611,67.7776z"/><path fill="#000000" d="M40.4299,45.2017c-0.3251,0.6991-0.0219,1.5293,0.6771,1.8543c0.1906,0.0886,0.3907,0.1305,0.5877,0.1305   c0.5263,0,1.0302-0.2991,1.2667-0.8076c5.4683-11.7602-0.1376-19.4943-0.3788-19.8178c-0.4609-0.618-1.3357-0.7451-1.9537-0.2842   c-0.618,0.461-0.7451,1.3357-0.2842,1.9537C40.3939,28.2964,45.2032,34.9359,40.4299,45.2017z"/><path fill="#000000" d="M26.5516,34.1198c1.5709,0.8197,2.4361,1.2712,2.4361,4.3559c0,0.7709,0.625,1.396,1.396,1.396   s1.396-0.625,1.396-1.396c0-4.7771-2.1827-5.916-3.9365-6.8312c-0.9604-0.501-1.7897-0.9338-2.4392-1.9655   c-0.5303-0.8421-0.5945-1.6018-0.1966-2.3224c0.0688-0.1249,0.1506-0.2463,0.2437-0.364c0.8891,1.4126,2.212,2.2293,3.7373,2.2293   c1.2255,0,2.2887-0.3246,3.0746-0.9386c0.8098-0.6327,1.2741-1.5437,1.2741-2.4996c0-1.6416-1.4029-3.3034-4.0841-3.3034   c-0.8111,0-1.6104,0.1159-2.3652,0.3307c-0.0374-1.6332,0.5599-3.3108,1.9856-4.0453c0.6854-0.3531,0.9548-1.1949,0.6017-1.8802   c-0.3529-0.6856-1.1954-0.9545-1.8802-0.6017c-3.0076,1.5493-3.8408,5.0215-3.3812,7.8491   c-0.6888,0.5269-1.2568,1.1611-1.6505,1.8742c-0.895,1.6209-0.7961,3.4532,0.2781,5.1594   C24.0928,32.8369,25.4561,33.5482,26.5516,34.1198z M29.4529,25.2723c0.9132,0,1.2922,0.3332,1.2922,0.5115   c0,0.2253-0.4567,0.6463-1.5568,0.6463c-0.5666,0-1.0227-0.3884-1.3598-0.9166C28.3513,25.3587,28.9051,25.2723,29.4529,25.2723z"/><path fill="#000000" d="M53.3096,36.5882c-1.4052,0.5597-2.393,1.8113-2.5164,3.1885c-0.105,1.172,0.3655,2.3913,1.3247,3.4334   c0.2949,0.3202,0.6244,0.6139,0.9838,0.8789c-1.2908,0.6541-2.692,1.2225-3.8476,1.5969   c-0.7333,0.2372-1.1356,1.0238-0.8986,1.7572c0.1909,0.5911,0.7386,0.9674,1.3281,0.9674c0.1422,0,0.2868-0.0219,0.4293-0.068   c0.8601-0.2777,3.7534-1.2753,6.1515-2.834c0.8139,0.1909,1.6772,0.2851,2.5817,0.2818c5.7544-0.0376,7.9338-4.904,8.0236-5.1112   c0.3071-0.7071-0.0172-1.5294-0.7243-1.8366c-0.7068-0.3066-1.5294,0.017-1.8366,0.7244   c-0.0145,0.0334-1.4734,3.2914-5.2802,3.4272c0.3277-0.4804,0.5633-0.9874,0.6741-1.5196   c0.2009-0.9641,0.0965-2.4167-1.5413-3.8626C56.7163,36.3362,54.9022,35.9534,53.3096,36.5882z M56.3136,39.705   c0.7649,0.6752,0.6828,1.07,0.6559,1.1998c-0.0995,0.4786-0.5373,0.9984-1.18,1.5189c-0.6475-0.2789-1.2013-0.6523-1.6173-1.1044   c-0.4075-0.4426-0.631-0.9263-0.5982-1.2936c0.0243-0.2702,0.302-0.6579,0.7689-0.8438c0.1759-0.0701,0.3589-0.1047,0.5462-0.1047   C55.3537,39.0772,55.8442,39.2906,56.3136,39.705z"/><path fill="#000000" d="M50.9307,26.0181c0.0035,1.0291-0.2138,2.1605-0.7672,3.3388c-0.2925,0.6226-0.596,1.1682-0.9018,1.6214   c-0.4313,0.6391-0.2628,1.5068,0.3763,1.938c0.2395,0.1615,0.5109,0.239,0.7796,0.239c0.4484,0,0.8887-0.2157,1.1583-0.6152   c0.3861-0.5722,0.7611-1.2437,1.1146-1.9962c0.9712-2.0679,1.199-4.0541,0.9701-5.803c1.1611-0.7991,1.9406-1.821,2.326-3.0532   c0.9534-3.049-1.0275-6.1332-1.1123-6.2631c-0.4204-0.6433-1.2799-0.8237-1.926-0.4057c-0.6452,0.4178-0.8297,1.2812-0.4143,1.9282   c0.0135,0.0211,1.3502,2.1341,0.7847,3.9177c-0.1081,0.3408-0.2872,0.6565-0.536,0.9461c-0.6218-1.2711-1.4752-2.2662-2.3439-2.868   c-1.5481-1.0722-3.2817-1.0123-4.4172,0.153c-1.64,1.6829-2.056,4.172-0.9679,5.7898   C45.5755,25.6612,47.1492,27.2163,50.9307,26.0181z M48.0212,21.0442c0.0514-0.0529,0.1194-0.074,0.1949-0.074   c0.2172,0,0.4976,0.1739,0.6329,0.2676c0.5171,0.3583,1.096,1.07,1.512,2.0281c-1.6893,0.5929-2.7116,0.4763-2.9908,0.0613   C47.0669,22.8763,47.2808,21.8039,48.0212,21.0442z"/><path fill="#000000" d="M59.9859,30.8501c-0.5021,0.5851-0.4347,1.4664,0.1502,1.9685c0.2634,0.226,0.5867,0.3366,0.9085,0.3366   c0.3932,0,0.784-0.1651,1.0601-0.4868c0.0489-0.0571,4.9907-5.7261,12.988-7.3259c0.7559-0.1512,1.2461-0.8866,1.0949-1.6427   c-0.1512-0.7559-0.8865-1.2463-1.6427-1.0949C65.6137,24.3914,60.2115,30.5873,59.9859,30.8501z"/><path fill="#000000" d="M12.7517,29.5328c-0.3114-0.2004-0.6891-0.269-1.0513-0.1907c-0.3618,0.0784-0.6777,0.2973-0.8781,0.6085   l-1.6138,2.5062c-0.4174,0.6482-0.2304,1.512,0.4178,1.9294l2.5062,1.6139c0.2271,0.1463,0.4898,0.2223,0.7558,0.2223   c0.0986,0,0.1977-0.0105,0.2956-0.0316c0.3618-0.0784,0.6777-0.2973,0.8781-0.6086l1.6138-2.5062   c0.4174-0.6482,0.2304-1.512-0.4178-1.9294L12.7517,29.5328z"/><path fill="#000000" d="M34.4654,21.7276c0.2361,0.5096,0.7405,0.8094,1.2675,0.8094c0.1963,0,0.396-0.0416,0.5859-0.1296   l1.958-0.9072c0.6995-0.324,1.0039-1.154,0.6797-1.8535l-0.9072-1.958c-0.3242-0.6995-1.1538-1.0046-1.8535-0.6797l-1.958,0.9072   c-0.6995,0.324-1.0039,1.154-0.6797,1.8535L34.4654,21.7276z"/><path fill="#000000" d="M30.2802,9.5959c0.0639,0.558,0.4484,1.0012,0.9487,1.1669c0.1863,0.0617,0.389,0.0851,0.597,0.0612   l2.144-0.2455c0.7659-0.0877,1.3158-0.7798,1.2281-1.5457l-0.2455-2.144c-0.0878-0.7659-0.7794-1.3164-1.5457-1.2281l-2.144,0.2455   c-0.7659,0.0877-1.3158,0.7798-1.2281,1.5457L30.2802,9.5959z"/><path fill="#000000" d="M71.6294,32.9588l-0.9089,3.5381c-0.1918,0.7468,0.2581,1.5076,1.0047,1.6994l3.5381,0.9089   c0.1166,0.03,0.2334,0.0442,0.3483,0.0442c0.6219,0,1.1893-0.4188,1.3511-1.0489l0.9089-3.5381   c0.1918-0.7468-0.2581-1.5076-1.0047-1.6994l-3.5381-0.9089C72.5818,31.762,71.8211,32.2122,71.6294,32.9588z"/><path fill="#000000" d="M60.0262,20.924c0.2605,0.4407,0.7255,0.6857,1.2029,0.6857c0.2414,0,0.4861-0.0627,0.709-0.1945   l1.2907-0.763c0.3187-0.1884,0.5495-0.4957,0.6417-0.8543s0.038-0.7391-0.1504-1.0579l-0.7631-1.2907   c-0.3926-0.6635-1.2486-0.8835-1.9122-0.4912l-1.2907,0.7631c-0.3186,0.1885-0.5494,0.4958-0.6415,0.8545   c-0.0922,0.3585-0.038,0.739,0.1505,1.0577L60.0262,20.924z"/><path fill="#000000" d="M75.7642,46.0682l-2.5591-0.1806c-0.7678-0.0521-1.4366,0.5251-1.4908,1.2943l-0.1806,2.5591   c-0.0543,0.769,0.5253,1.4364,1.2943,1.4908l2.5591,0.1806c0.0335,0.0023,0.0667,0.0034,0.0998,0.0034   c0.7262,0,1.3391-0.5621,1.391-1.2977l0.1806-2.5591C77.1128,46.79,76.5332,46.1226,75.7642,46.0682z"/><path fill="#000000" d="M77.0899,74.1485l-2.352-1.0526c-0.7034-0.3146-1.5293,0.0004-1.8445,0.704l-1.0526,2.3519   c-0.1512,0.338-0.1619,0.7221-0.03,1.068c0.1321,0.346,0.396,0.6252,0.734,0.7765l2.352,1.0526   c0.1853,0.0829,0.3788,0.1221,0.5694,0.1221c0.5336,0,1.0429-0.3077,1.275-0.8261l1.0526-2.3519   c0.1512-0.3379,0.162-0.7221,0.03-1.068C77.6917,74.579,77.4278,74.2998,77.0899,74.1485z"/><path fill="#000000" d="M65.6338,80.0621c-0.3857-0.6677-1.2396-0.8966-1.9069-0.5109l-1.9414,1.1208   c-0.6677,0.3855-0.8965,1.2392-0.5109,1.9069l1.1209,1.9415c0.1851,0.3206,0.4899,0.5546,0.8477,0.6504   c0.1189,0.0319,0.2402,0.0476,0.3613,0.0476c0.2429,0,0.4839-0.0634,0.698-0.187l1.9415-1.121   c0.3206-0.1851,0.5546-0.4901,0.6504-0.8477c0.0958-0.3576,0.0457-0.7387-0.1395-1.0592L65.6338,80.0621z"/><path fill="#000000" d="M92.4368,50.4371c-0.3857-0.6677-1.2396-0.8966-1.9069-0.5109l-1.9414,1.1209   c-0.6677,0.3855-0.8965,1.2392-0.5109,1.9069l1.1209,1.9415c0.1851,0.3206,0.4899,0.5546,0.8477,0.6504   c0.1189,0.0319,0.2402,0.0476,0.3613,0.0476c0.2429,0,0.4839-0.0634,0.698-0.187l1.9415-1.121   c0.3206-0.1851,0.5546-0.4901,0.6504-0.8477c0.0958-0.3576,0.0457-0.7387-0.1395-1.0592L92.4368,50.4371z"/><path fill="#000000" d="M13.6205,27.3462c1.4802-0.1996,2.742-0.9808,3.609-2.1234c1.1405,2.4174,0.0536,5.5969,0.0348,5.6509   c-0.2575,0.7251,0.1205,1.5221,0.8455,1.7813c0.1553,0.0556,0.314,0.0819,0.47,0.0819c0.5731,0,1.1104-0.3557,1.3144-0.9263   c0.0687-0.1922,1.6595-4.749-0.4332-8.337c-0.2885-0.4946-0.629-0.9443-1.0205-1.3485c0.0307-0.278,0.0447-0.5621,0.0409-0.8513   c-0.0397-3.0508-2.1363-6.3521-6.7308-6.8503c-0.7645-0.0838-1.4553,0.4707-1.5383,1.2373   c-0.0832,0.7664,0.4709,1.4553,1.2373,1.5383c2.4946,0.2706,3.7095,1.6308,4.0975,3.0746   c-0.6485-0.2459-1.357-0.4357-2.1242-0.5685c-1.6927-0.2931-3.2408,0.3314-4.1429,1.6696   c-0.8688,1.2888-0.929,2.9972-0.1501,4.2513C9.9768,26.9898,11.6143,27.6175,13.6205,27.3462z M11.595,22.9354   c0.1651-0.245,0.4696-0.5097,1.0148-0.5097c0.1035,0,0.2157,0.0095,0.337,0.0305c0.8826,0.1527,1.6457,0.3989,2.2859,0.7363   c-0.3922,0.7074-1.0442,1.2599-1.9851,1.3868c-0.8691,0.1168-1.5049-0.0384-1.746-0.4266   C11.2993,23.8275,11.3387,23.3156,11.595,22.9354z"/><path fill="#000000" d="M88.6257,77.9112c1.1534-0.9489,1.8149-2.2774,1.9506-3.7053c2.2423,1.4549,2.992,4.7303,3.0044,4.7861   c0.1628,0.7521,0.9037,1.2306,1.6566,1.0694c0.1613-0.0345,0.3101-0.0956,0.4428-0.1778c0.4873-0.3017,0.7568-0.8869,0.6299-1.4795   c-0.0428-0.1996-1.0892-4.9112-4.7573-6.8601c-0.5056-0.2686-1.0319-0.4717-1.5776-0.6093   c-0.1203-0.2525-0.2579-0.5014-0.4134-0.7454c-1.6398-2.5729-5.1604-4.276-9.3289-2.2808   c-0.6941,0.3312-0.9895,1.1663-0.6565,1.8618c0.3328,0.6954,1.1664,0.9894,1.8618,0.6565c2.2634-1.0832,4.0124-0.5663,5.1023,0.457   c-0.6808,0.1323-1.3831,0.3439-2.1053,0.6349c-1.5935,0.6419-2.5809,1.9879-2.6434,3.6005   c-0.0602,1.5531,0.788,3.0373,2.1104,3.6935C85.3402,79.5264,87.0629,79.198,88.6257,77.9112z M84.5816,75.2275   c0.0114-0.2952,0.131-0.6806,0.5945-0.9676c0.088-0.0545,0.1884-0.1054,0.3026-0.1515c0.8307-0.3348,1.6092-0.5272,2.3311-0.5774   c0.0389,0.8079-0.2246,1.6209-0.9577,2.2242c-0.6774,0.5568-1.2997,0.7595-1.7091,0.5565   C84.7999,76.1416,84.5639,75.6856,84.5816,75.2275z"/><path fill="#000000" d="M84.0131,56.7264c-7.2485-2.4463-14.1034-1.8032-14.3914-1.7744   c-0.7672,0.0761-1.3275,0.7597-1.2514,1.5268c0.0761,0.7671,0.7574,1.3285,1.5268,1.2514   c0.0645-0.0067,6.5384-0.6145,13.2234,1.6413c0.148,0.05,0.2984,0.0737,0.4465,0.0737c0.5825,0,1.126-0.3675,1.3225-0.95   C85.1359,57.7649,84.7436,56.9728,84.0131,56.7264z"/></g><text x="0" y="115" fill="#000000" font-size="5px" font-weight="bold" font-family="'Helvetica Neue', Helvetica, Arial-Unicode, Arial, Sans-serif">Created by HeadsOfBirds</text><text x="0" y="120" fill="#000000" font-size="5px" font-weight="bold" font-family="'Helvetica Neue', Helvetica, Arial-Unicode, Arial, Sans-serif">from the Noun Project</text></svg>