<svg id="Layer_1" data-name="Layer 1" xmlns="http://www.w3.org/2000/svg" xmlns:xlink="http://www.w3.org/1999/xlink" viewBox="0 0 300 300"><defs><linearGradient id="linear-gradient" x1="-306.53" y1="6.06" x2="-305.83" y2="6.81" gradientTransform="translate(90629.6 -1813.9) scale(295.7)" gradientUnits="userSpaceOnUse"><stop offset="0" stop-color="#fff"/><stop offset="1" stop-color="#fff" stop-opacity="0"/></linearGradient><linearGradient id="linear-gradient-2" x1="-305.86" y1="6.88" x2="-306.32" y2="6.43" gradientTransform="translate(76093.3 -1570.4) scale(248.33)" gradientUnits="userSpaceOnUse"><stop offset="0" stop-color="red"/><stop offset="1"/></linearGradient><radialGradient id="radial-gradient" cx="-586.4" cy="265.8" r="53.04" gradientTransform="translate(-252 178.6) rotate(-135) scale(0.83 1.02)" gradientUnits="userSpaceOnUse"><stop offset="0" stop-color="#fff" stop-opacity="0.41"/><stop offset="1" stop-color="#fff" stop-opacity="0"/></radialGradient><linearGradient id="linear-gradient-3" x1="-306.08" y1="7.17" x2="-305.51" y2="7.98" gradientTransform="translate(67298.9 -1232.6) scale(219.69 177.45)" xlink:href="#linear-gradient"/></defs><title>start-01</title><path id="path7177" d="M300,150A150,150,0,1,1,150,0,150.1,150.1,0,0,1,300,150Z" style="fill:#999"/><path id="path7179" d="M297.9,150A147.9,147.9,0,1,1,150,2.1,147.9,147.9,0,0,1,297.9,150Z" style="fill:url(#linear-gradient)"/><path id="path7181" d="M284.6,150A134.6,134.6,0,1,1,150,15.4h0A134.6,134.6,0,0,1,284.6,150Z" style="fill:#ececec"/><path id="path7183" d="M279.2,150A129.2,129.2,0,1,1,150,20.8,129.1,129.1,0,0,1,279.2,150Z" style="fill:#999"/><path id="path7185" d="M274.2,150A124.2,124.2,0,1,1,150,25.8,124.2,124.2,0,0,1,274.2,150Z" style="fill:url(#linear-gradient-2)"/><path id="path7187" d="M266.8,150A116.8,116.8,0,1,1,150,33.2h0A116.8,116.8,0,0,1,266.8,150Z" style="fill:url(#radial-gradient)"/><path id="path7189" d="M146.4,32.3A114.8,114.8,0,0,0,52.9,209.7c2.4-77.1,61.4-135.1,134.5-130.9a136.7,136.7,0,0,1,66.4,22.1A114.1,114.1,0,0,0,146.4,32.3Z" style="opacity:0.6700000166893005;isolation:isolate;fill:url(#linear-gradient-3)"/></svg>